<?xml version="1.0" encoding="iso-8859-1"?>
<!-- Generator: Adobe Illustrator 17.1.0, SVG Export Plug-In . SVG Version: 6.00 Build 0)  -->
<!DOCTYPE svg PUBLIC "-//W3C//DTD SVG 1.1//EN" "http://www.w3.org/Graphics/SVG/1.1/DTD/svg11.dtd">
<svg fill="#F7F8F3" version="1.1" id="Capa_1" xmlns="http://www.w3.org/2000/svg" xmlns:xlink="http://www.w3.org/1999/xlink" x="0px" y="0px"
	 viewBox="0 0 222.762 222.762" style="enable-background:new 0 0 222.762 222.762;" xml:space="preserve">
<path d="M218.568,66.455l-14.944,29.376c-5.062,9.949-15.143,16.129-26.309,16.129c-0.002,0-0.002,0-0.003,0
	c-1.63,0-3.26-0.146-4.87-0.418c-7.83,10.958-19.87,18.046-33.34,19.538c-0.819,19.254-4.934,38.371-12.747,49.119l24.243,30.384
	c2.135,2.675,2.188,6.456,0.129,9.189c-1.45,1.927-3.691,2.989-5.994,2.989c-0.964,0-1.939-0.186-2.872-0.574
	c-10.183-4.227-20.44-6.465-30.489-6.656c-10.049,0.19-20.306,2.429-30.488,6.656c-3.161,1.313-6.81,0.318-8.866-2.416
	c-2.059-2.733-2.006-6.514,0.129-9.189l24.247-30.391c-8.325-11.332-12.037-31.552-12.771-49.55
	c-12.454-2.199-23.456-9.238-30.685-19.676c-2.451,0.648-4.978,0.993-7.505,0.993c-11.169,0-21.25-6.18-26.311-16.129L4.177,66.454
	c-6.626-13.024-1.42-29.01,11.604-35.635l3.42-1.74c3.691-1.877,8.207-0.408,10.085,3.284L42.241,57.83l1.295-0.659
	c2.485-1.264,5.265-1.932,8.041-1.932c6.718,0,12.783,3.718,15.829,9.703l4.597,9.037c5.244,10.309,2.628,22.583-5.607,29.96
	c4.39,5.605,10.457,9.568,17.308,11.358c1.191-23.473,7.315-46.436,19.068-53.974c-4.049-16.913-13.5-42.324-21.959-46.015
	c-0.927-0.405-1.737-0.481-3.141,0.33c-3.584,2.072-8.174,0.843-10.245-2.744C65.354,9.308,66.583,4.72,70.17,2.648
	c5.39-3.114,11.145-3.489,16.646-1.087c11.212,4.896,19.39,21.645,24.557,36.09c5.167-14.445,13.344-31.194,24.557-36.09
	c5.502-2.402,11.258-2.026,16.647,1.086c3.587,2.072,4.815,6.659,2.743,10.246c-2.071,3.587-6.66,4.814-10.245,2.744
	c-1.4-0.81-2.212-0.735-3.141-0.33c-8.46,3.691-17.911,29.102-21.96,46.014c11.86,7.607,17.984,30.919,19.096,54.612
	c7.449-1.21,14.162-4.934,19.102-10.535c-4.166-3.068-7.285-7.326-8.919-12.344c-2.067-6.35-1.538-13.125,1.49-19.076l4.597-9.036
	c3.045-5.986,9.109-9.704,15.828-9.704c2.776,0,5.556,0.668,8.04,1.932l1.296,0.659l12.955-25.466
	c1.879-3.692,6.396-5.161,10.085-3.284l3.42,1.74c6.31,3.209,10.991,8.684,13.183,15.414
	C222.339,52.965,221.778,60.146,218.568,66.455z"/>
<g>
</g>
<g>
</g>
<g>
</g>
<g>
</g>
<g>
</g>
<g>
</g>
<g>
</g>
<g>
</g>
<g>
</g>
<g>
</g>
<g>
</g>
<g>
</g>
<g>
</g>
<g>
</g>
<g>
</g>
</svg>
